<?xml version="1.0" encoding="UTF-8" standalone="no"?>
<!DOCTYPE svg PUBLIC "-//W3C//DTD SVG 1.1//EN"
 "http://www.w3.org/Graphics/SVG/1.1/DTD/svg11.dtd">
<!-- Generated by graphviz version 2.38.0 (20140413.2041)
 -->
<!-- Title: %3 Pages: 1 -->
<svg width="1348pt" height="764pt"
 viewBox="0.00 0.00 1347.57 764.00" xmlns="http://www.w3.org/2000/svg" xmlns:xlink="http://www.w3.org/1999/xlink">
<g id="graph0" class="graph" transform="scale(1 1) rotate(0) translate(4 760)">
<title>%3</title>
<polygon fill="white" stroke="none" points="-4,4 -4,-760 1343.57,-760 1343.57,4 -4,4"/>
<!-- [root] module.gcp_functions.google_cloudfunctions_function.exampleFunction -->
<g id="node1" class="node"><title>[root] module.gcp_functions.google_cloudfunctions_function.exampleFunction</title>
<polygon fill="none" stroke="black" points="1103.59,-468 569.591,-468 569.591,-432 1103.59,-432 1103.59,-468"/>
<text text-anchor="middle" x="836.591" y="-446.3" font-family="Times,serif" font-size="14.00">module.gcp_functions.google_cloudfunctions_function.exampleFunction</text>
</g>
<!-- [root] module.gcp_functions.var.project -->
<g id="node8" class="node"><title>[root] module.gcp_functions.var.project</title>
<ellipse fill="none" stroke="black" cx="1144.59" cy="-234" rx="194.965" ry="18"/>
<text text-anchor="middle" x="1144.59" y="-230.3" font-family="Times,serif" font-size="14.00">[root] module.gcp_functions.var.project</text>
</g>
<!-- [root] module.gcp_functions.google_cloudfunctions_function.exampleFunction&#45;&gt;[root] module.gcp_functions.var.project -->
<g id="edge3" class="edge"><title>[root] module.gcp_functions.google_cloudfunctions_function.exampleFunction&#45;&gt;[root] module.gcp_functions.var.project</title>
<path fill="none" stroke="black" d="M1044.67,-431.995C1089.1,-424.152 1127.3,-412.704 1142.59,-396 1175.74,-359.779 1164.34,-297.462 1153.92,-261.915"/>
<polygon fill="black" stroke="black" points="1157.22,-260.732 1150.9,-252.222 1150.53,-262.81 1157.22,-260.732"/>
</g>
<!-- [root] module.gcp_functions.var.source_archive_bucket -->
<g id="node9" class="node"><title>[root] module.gcp_functions.var.source_archive_bucket</title>
<ellipse fill="none" stroke="black" cx="313.591" cy="-378" rx="269.952" ry="18"/>
<text text-anchor="middle" x="313.591" y="-374.3" font-family="Times,serif" font-size="14.00">[root] module.gcp_functions.var.source_archive_bucket</text>
</g>
<!-- [root] module.gcp_functions.google_cloudfunctions_function.exampleFunction&#45;&gt;[root] module.gcp_functions.var.source_archive_bucket -->
<g id="edge4" class="edge"><title>[root] module.gcp_functions.google_cloudfunctions_function.exampleFunction&#45;&gt;[root] module.gcp_functions.var.source_archive_bucket</title>
<path fill="none" stroke="black" d="M709.319,-431.966C626.886,-420.933 520.039,-406.632 438.15,-395.671"/>
<polygon fill="black" stroke="black" points="438.413,-392.175 428.037,-394.318 437.484,-399.114 438.413,-392.175"/>
</g>
<!-- [root] module.gcp_functions.var.source_archive_object -->
<g id="node10" class="node"><title>[root] module.gcp_functions.var.source_archive_object</title>
<ellipse fill="none" stroke="black" cx="867.591" cy="-378" rx="266.453" ry="18"/>
<text text-anchor="middle" x="867.591" y="-374.3" font-family="Times,serif" font-size="14.00">[root] module.gcp_functions.var.source_archive_object</text>
</g>
<!-- [root] module.gcp_functions.google_cloudfunctions_function.exampleFunction&#45;&gt;[root] module.gcp_functions.var.source_archive_object -->
<g id="edge5" class="edge"><title>[root] module.gcp_functions.google_cloudfunctions_function.exampleFunction&#45;&gt;[root] module.gcp_functions.var.source_archive_object</title>
<path fill="none" stroke="black" d="M844.253,-431.697C847.782,-423.728 852.046,-414.1 855.959,-405.264"/>
<polygon fill="black" stroke="black" points="859.167,-406.665 860.016,-396.104 852.766,-403.831 859.167,-406.665"/>
</g>
<!-- [root] module.gcs_buckets.google_storage_bucket.primary_bucket -->
<g id="node2" class="node"><title>[root] module.gcs_buckets.google_storage_bucket.primary_bucket</title>
<polygon fill="none" stroke="black" points="822.591,-180 370.591,-180 370.591,-144 822.591,-144 822.591,-180"/>
<text text-anchor="middle" x="596.591" y="-158.3" font-family="Times,serif" font-size="14.00">module.gcs_buckets.google_storage_bucket.primary_bucket</text>
</g>
<!-- [root] provider.google -->
<g id="node4" class="node"><title>[root] provider.google</title>
<polygon fill="none" stroke="black" points="693.591,-108 575.786,-90 693.591,-72 811.395,-90 693.591,-108"/>
<text text-anchor="middle" x="693.591" y="-86.3" font-family="Times,serif" font-size="14.00">provider.google</text>
</g>
<!-- [root] module.gcs_buckets.google_storage_bucket.primary_bucket&#45;&gt;[root] provider.google -->
<g id="edge11" class="edge"><title>[root] module.gcs_buckets.google_storage_bucket.primary_bucket&#45;&gt;[root] provider.google</title>
<path fill="none" stroke="black" d="M620.568,-143.697C634.227,-133.839 651.408,-121.441 665.672,-111.147"/>
<polygon fill="black" stroke="black" points="668.059,-113.741 674.12,-105.051 663.963,-108.065 668.059,-113.741"/>
</g>
<!-- [root] module.gcs_buckets.var.project -->
<g id="node15" class="node"><title>[root] module.gcs_buckets.var.project</title>
<ellipse fill="none" stroke="black" cx="370.591" cy="-90" rx="187.667" ry="18"/>
<text text-anchor="middle" x="370.591" y="-86.3" font-family="Times,serif" font-size="14.00">[root] module.gcs_buckets.var.project</text>
</g>
<!-- [root] module.gcs_buckets.google_storage_bucket.primary_bucket&#45;&gt;[root] module.gcs_buckets.var.project -->
<g id="edge10" class="edge"><title>[root] module.gcs_buckets.google_storage_bucket.primary_bucket&#45;&gt;[root] module.gcs_buckets.var.project</title>
<path fill="none" stroke="black" d="M541.594,-143.966C508.891,-133.836 467.296,-120.953 433.318,-110.429"/>
<polygon fill="black" stroke="black" points="434.082,-107.002 423.494,-107.386 432.011,-113.688 434.082,-107.002"/>
</g>
<!-- [root] module.gcs_buckets.google_storage_bucket_object.archive -->
<g id="node3" class="node"><title>[root] module.gcs_buckets.google_storage_bucket_object.archive</title>
<polygon fill="none" stroke="black" points="888.091,-252 445.091,-252 445.091,-216 888.091,-216 888.091,-252"/>
<text text-anchor="middle" x="666.591" y="-230.3" font-family="Times,serif" font-size="14.00">module.gcs_buckets.google_storage_bucket_object.archive</text>
</g>
<!-- [root] module.gcs_buckets.google_storage_bucket_object.archive&#45;&gt;[root] module.gcs_buckets.google_storage_bucket.primary_bucket -->
<g id="edge12" class="edge"><title>[root] module.gcs_buckets.google_storage_bucket_object.archive&#45;&gt;[root] module.gcs_buckets.google_storage_bucket.primary_bucket</title>
<path fill="none" stroke="black" d="M649.287,-215.697C640.726,-207.135 630.247,-196.656 620.895,-187.304"/>
<polygon fill="black" stroke="black" points="623.241,-184.701 613.695,-180.104 618.291,-189.65 623.241,-184.701"/>
</g>
<!-- [root] var.project -->
<g id="node12" class="node"><title>[root] var.project</title>
<ellipse fill="none" stroke="black" cx="531.591" cy="-18" rx="89.8845" ry="18"/>
<text text-anchor="middle" x="531.591" y="-14.3" font-family="Times,serif" font-size="14.00">[root] var.project</text>
</g>
<!-- [root] provider.google&#45;&gt;[root] var.project -->
<g id="edge19" class="edge"><title>[root] provider.google&#45;&gt;[root] var.project</title>
<path fill="none" stroke="black" d="M664.254,-76.3235C639.842,-65.7752 604.685,-50.5839 576.696,-38.4898"/>
<polygon fill="black" stroke="black" points="578.072,-35.272 567.504,-34.5183 575.296,-41.6978 578.072,-35.272"/>
</g>
<!-- [root] meta.count&#45;boundary (count boundary fixup) -->
<g id="node5" class="node"><title>[root] meta.count&#45;boundary (count boundary fixup)</title>
<ellipse fill="none" stroke="black" cx="519.591" cy="-666" rx="247.756" ry="18"/>
<text text-anchor="middle" x="519.591" y="-662.3" font-family="Times,serif" font-size="14.00">[root] meta.count&#45;boundary (count boundary fixup)</text>
</g>
<!-- [root] output.cloudfunction&#45;url -->
<g id="node6" class="node"><title>[root] output.cloudfunction&#45;url</title>
<ellipse fill="none" stroke="black" cx="519.591" cy="-594" rx="153.273" ry="18"/>
<text text-anchor="middle" x="519.591" y="-590.3" font-family="Times,serif" font-size="14.00">[root] output.cloudfunction&#45;url</text>
</g>
<!-- [root] meta.count&#45;boundary (count boundary fixup)&#45;&gt;[root] output.cloudfunction&#45;url -->
<g id="edge1" class="edge"><title>[root] meta.count&#45;boundary (count boundary fixup)&#45;&gt;[root] output.cloudfunction&#45;url</title>
<path fill="none" stroke="black" d="M519.591,-647.697C519.591,-639.983 519.591,-630.712 519.591,-622.112"/>
<polygon fill="black" stroke="black" points="523.091,-622.104 519.591,-612.104 516.091,-622.104 523.091,-622.104"/>
</g>
<!-- [root] output.project -->
<g id="node7" class="node"><title>[root] output.project</title>
<ellipse fill="none" stroke="black" cx="106.591" cy="-522" rx="106.681" ry="18"/>
<text text-anchor="middle" x="106.591" y="-518.3" font-family="Times,serif" font-size="14.00">[root] output.project</text>
</g>
<!-- [root] meta.count&#45;boundary (count boundary fixup)&#45;&gt;[root] output.project -->
<g id="edge2" class="edge"><title>[root] meta.count&#45;boundary (count boundary fixup)&#45;&gt;[root] output.project</title>
<path fill="none" stroke="black" d="M467.682,-648.376C435.844,-638.091 394.283,-624.505 357.591,-612 288.726,-588.53 209.685,-560.286 158.997,-542.005"/>
<polygon fill="black" stroke="black" points="160.155,-538.702 149.56,-538.598 157.778,-545.286 160.155,-538.702"/>
</g>
<!-- [root] module.gcp_functions.output.cloudfunction&#45;url -->
<g id="node11" class="node"><title>[root] module.gcp_functions.output.cloudfunction&#45;url</title>
<ellipse fill="none" stroke="black" cx="534.591" cy="-522" rx="258.854" ry="18"/>
<text text-anchor="middle" x="534.591" y="-518.3" font-family="Times,serif" font-size="14.00">[root] module.gcp_functions.output.cloudfunction&#45;url</text>
</g>
<!-- [root] output.cloudfunction&#45;url&#45;&gt;[root] module.gcp_functions.output.cloudfunction&#45;url -->
<g id="edge16" class="edge"><title>[root] output.cloudfunction&#45;url&#45;&gt;[root] module.gcp_functions.output.cloudfunction&#45;url</title>
<path fill="none" stroke="black" d="M523.298,-575.697C524.951,-567.983 526.938,-558.712 528.781,-550.112"/>
<polygon fill="black" stroke="black" points="532.252,-550.616 530.925,-540.104 525.408,-549.149 532.252,-550.616"/>
</g>
<!-- [root] output.project&#45;&gt;[root] var.project -->
<g id="edge17" class="edge"><title>[root] output.project&#45;&gt;[root] var.project</title>
<path fill="none" stroke="black" d="M86.3947,-504.001C59.5854,-479.412 15.5905,-431.12 15.5905,-379 15.5905,-379 15.5905,-379 15.5905,-161 15.5905,-74.3741 289.349,-38.605 438.064,-25.5648"/>
<polygon fill="black" stroke="black" points="438.449,-29.0448 448.113,-24.7016 437.85,-22.0705 438.449,-29.0448"/>
</g>
<!-- [root] module.gcp_functions.var.project&#45;&gt;[root] var.project -->
<g id="edge7" class="edge"><title>[root] module.gcp_functions.var.project&#45;&gt;[root] var.project</title>
<path fill="none" stroke="black" d="M1117.13,-216.015C1062.66,-183.097 936.211,-110.479 820.591,-72 754.728,-50.0804 677.226,-36.4885 619.069,-28.5645"/>
<polygon fill="black" stroke="black" points="619.184,-25.049 608.81,-27.1979 618.26,-31.9877 619.184,-25.049"/>
</g>
<!-- [root] module.gcs_buckets.output.bucket&#45;primary -->
<g id="node13" class="node"><title>[root] module.gcs_buckets.output.bucket&#45;primary</title>
<ellipse fill="none" stroke="black" cx="306.591" cy="-306" rx="243.157" ry="18"/>
<text text-anchor="middle" x="306.591" y="-302.3" font-family="Times,serif" font-size="14.00">[root] module.gcs_buckets.output.bucket&#45;primary</text>
</g>
<!-- [root] module.gcp_functions.var.source_archive_bucket&#45;&gt;[root] module.gcs_buckets.output.bucket&#45;primary -->
<g id="edge8" class="edge"><title>[root] module.gcp_functions.var.source_archive_bucket&#45;&gt;[root] module.gcs_buckets.output.bucket&#45;primary</title>
<path fill="none" stroke="black" d="M311.86,-359.697C311.089,-351.983 310.162,-342.712 309.302,-334.112"/>
<polygon fill="black" stroke="black" points="312.779,-333.706 308.301,-324.104 305.813,-334.403 312.779,-333.706"/>
</g>
<!-- [root] module.gcs_buckets.output.cloudfunction&#45;gcs&#45;object -->
<g id="node14" class="node"><title>[root] module.gcs_buckets.output.cloudfunction&#45;gcs&#45;object</title>
<ellipse fill="none" stroke="black" cx="853.591" cy="-306" rx="285.949" ry="18"/>
<text text-anchor="middle" x="853.591" y="-302.3" font-family="Times,serif" font-size="14.00">[root] module.gcs_buckets.output.cloudfunction&#45;gcs&#45;object</text>
</g>
<!-- [root] module.gcp_functions.var.source_archive_object&#45;&gt;[root] module.gcs_buckets.output.cloudfunction&#45;gcs&#45;object -->
<g id="edge9" class="edge"><title>[root] module.gcp_functions.var.source_archive_object&#45;&gt;[root] module.gcs_buckets.output.cloudfunction&#45;gcs&#45;object</title>
<path fill="none" stroke="black" d="M864.13,-359.697C862.587,-351.983 860.733,-342.712 859.013,-334.112"/>
<polygon fill="black" stroke="black" points="862.405,-333.224 857.011,-324.104 855.541,-334.597 862.405,-333.224"/>
</g>
<!-- [root] module.gcp_functions.output.cloudfunction&#45;url&#45;&gt;[root] module.gcp_functions.google_cloudfunctions_function.exampleFunction -->
<g id="edge6" class="edge"><title>[root] module.gcp_functions.output.cloudfunction&#45;url&#45;&gt;[root] module.gcp_functions.google_cloudfunctions_function.exampleFunction</title>
<path fill="none" stroke="black" d="M605.015,-504.676C649.356,-494.399 706.807,-481.082 753.392,-470.284"/>
<polygon fill="black" stroke="black" points="754.208,-473.688 763.159,-468.021 752.627,-466.869 754.208,-473.688"/>
</g>
<!-- [root] module.gcs_buckets.output.bucket&#45;primary&#45;&gt;[root] module.gcs_buckets.google_storage_bucket.primary_bucket -->
<g id="edge13" class="edge"><title>[root] module.gcs_buckets.output.bucket&#45;primary&#45;&gt;[root] module.gcs_buckets.google_storage_bucket.primary_bucket</title>
<path fill="none" stroke="black" d="M327.328,-287.888C351.889,-268.308 394.651,-236.333 435.591,-216 462.467,-202.652 493.478,-191.528 521.066,-182.974"/>
<polygon fill="black" stroke="black" points="522.118,-186.313 530.669,-180.057 520.083,-179.615 522.118,-186.313"/>
</g>
<!-- [root] module.gcs_buckets.output.cloudfunction&#45;gcs&#45;object&#45;&gt;[root] module.gcs_buckets.google_storage_bucket_object.archive -->
<g id="edge14" class="edge"><title>[root] module.gcs_buckets.output.cloudfunction&#45;gcs&#45;object&#45;&gt;[root] module.gcs_buckets.google_storage_bucket_object.archive</title>
<path fill="none" stroke="black" d="M808.323,-288.055C782.216,-278.282 749.201,-265.924 721.604,-255.593"/>
<polygon fill="black" stroke="black" points="722.682,-252.26 712.089,-252.032 720.228,-258.815 722.682,-252.26"/>
</g>
<!-- [root] module.gcs_buckets.var.project&#45;&gt;[root] var.project -->
<g id="edge15" class="edge"><title>[root] module.gcs_buckets.var.project&#45;&gt;[root] var.project</title>
<path fill="none" stroke="black" d="M409.154,-72.2333C432.396,-62.1281 462.108,-49.2097 486.443,-38.6296"/>
<polygon fill="black" stroke="black" points="488.046,-41.749 495.821,-34.5519 485.255,-35.3295 488.046,-41.749"/>
</g>
<!-- [root] provider.google (close) -->
<g id="node16" class="node"><title>[root] provider.google (close)</title>
<ellipse fill="none" stroke="black" cx="836.591" cy="-594" rx="145.674" ry="18"/>
<text text-anchor="middle" x="836.591" y="-590.3" font-family="Times,serif" font-size="14.00">[root] provider.google (close)</text>
</g>
<!-- [root] provider.google (close)&#45;&gt;[root] module.gcp_functions.google_cloudfunctions_function.exampleFunction -->
<g id="edge18" class="edge"><title>[root] provider.google (close)&#45;&gt;[root] module.gcp_functions.google_cloudfunctions_function.exampleFunction</title>
<path fill="none" stroke="black" d="M836.591,-575.871C836.591,-551.67 836.591,-507.211 836.591,-478.393"/>
<polygon fill="black" stroke="black" points="840.091,-478.189 836.591,-468.189 833.091,-478.189 840.091,-478.189"/>
</g>
<!-- [root] root -->
<g id="node17" class="node"><title>[root] root</title>
<ellipse fill="none" stroke="black" cx="667.591" cy="-738" rx="58.4896" ry="18"/>
<text text-anchor="middle" x="667.591" y="-734.3" font-family="Times,serif" font-size="14.00">[root] root</text>
</g>
<!-- [root] root&#45;&gt;[root] meta.count&#45;boundary (count boundary fixup) -->
<g id="edge20" class="edge"><title>[root] root&#45;&gt;[root] meta.count&#45;boundary (count boundary fixup)</title>
<path fill="none" stroke="black" d="M636.925,-722.496C615.921,-712.562 587.726,-699.226 564.239,-688.117"/>
<polygon fill="black" stroke="black" points="565.699,-684.936 555.162,-683.824 562.706,-691.264 565.699,-684.936"/>
</g>
<!-- [root] root&#45;&gt;[root] provider.google (close) -->
<g id="edge21" class="edge"><title>[root] root&#45;&gt;[root] provider.google (close)</title>
<path fill="none" stroke="black" d="M705.546,-724.258C727.938,-715.426 755.858,-702.005 776.591,-684 796.904,-666.359 813.388,-640.309 823.902,-620.945"/>
<polygon fill="black" stroke="black" points="827.026,-622.524 828.574,-612.043 820.828,-619.271 827.026,-622.524"/>
</g>
</g>
</svg>
